<?xml version="1.0" encoding="UTF-8" standalone="no"?>
<!-- Created with Inkscape (http://www.inkscape.org/) -->

<svg
   xmlns:dc="http://purl.org/dc/elements/1.1/"
   xmlns:cc="http://creativecommons.org/ns#"
   xmlns:rdf="http://www.w3.org/1999/02/22-rdf-syntax-ns#"
   xmlns:svg="http://www.w3.org/2000/svg"
   xmlns="http://www.w3.org/2000/svg"
   xmlns:sodipodi="http://sodipodi.sourceforge.net/DTD/sodipodi-0.dtd"
   xmlns:inkscape="http://www.inkscape.org/namespaces/inkscape"
   width="100%"
   viewBox="0 0 800 800"
   id="svg2"
   version="1.1"
   inkscape:version="0.48.2 r9819"
   sodipodi:docname="CartesianPlane_8.svg"
   inkscape:export-filename="C:\Users\imyers\Dropbox\0\OA_Charts\var\CartesianPlane_8.png"
   inkscape:export-xdpi="90"
   inkscape:export-ydpi="90">
  <defs
     id="defs4">
    <clipPath
       id="clipPath5013"
       clipPathUnits="userSpaceOnUse">
      <path
         id="path5015"
         clip-rule="evenodd"
         d="m 363.5442,9.9144 c -1.7139,-0.949 -15.7138,-8.9704 -15.7714,-8.9856 -0.5451,-0.3634 -1.258,0 -1.258,0.6058 0,0.6058 0.7601,1.0147 0.7601,1.0147 0,0 1.7139,1.1106 1.7139,3.993 -0.0367,2.3878 -0.0472,6.1789 -0.0472,8.4808 -0.587,3.1096 -1.8502,3.5336 -1.8764,3.5841 -0.5818,0.5755 -0.6342,0.6159 -0.173,1.2216 0.4613,0.6058 1.6406,-0.1968 1.6406,-0.1968 0,0 14.0575,-7.976 14.8856,-8.4757 0.3093,-0.2777 0.8753,-0.6008 0.1258,-1.2419 m -24.294,-5.7245 c -1.8449,0 -40.752,-0.0101 -68.0965,-0.0101 -2.4058,0 -3.1763,3.1803 -3.1763,3.7356 0,1.4589 0.0367,2.9329 0.0367,4.7603 0,1.8274 1.5252,3.6397 3.0924,3.6397 1.5672,0 67.6406,-0.0051 68.2538,-0.0051 1.7297,0 3.1291,-1.8072 3.1291,-3.367 0,-1.9385 0.0105,-3.988 0.0105,-5.0632 0,-1.888 -1.4047,-3.6902 -3.2497,-3.6902 m -77.4734,11.8428 c -0.2568,-0.8329 -0.6762,-9.3339 0.0472,-11.3582 0.3302,-0.9389 1.174,-1.7163 1.7454,-2.5291 0.3197,-0.4543 0.414,-0.8177 -0.1206,-1.2468 -0.304,-0.3231 -0.8334,0.0656 -0.8334,0.0656 0,0 -9.7962,5.5175 -15.8081,8.925 -0.2464,0.2372 -0.2935,0.631 -0.1573,0.944 0.1258,0.2726 0.5661,0.5502 1.3104,0.944 3.7633,2.1202 14.2042,7.9305 14.6498,8.1981 0.8386,0.323 1.1793,-0.2929 1.1793,-0.2929 0,0 0.2568,-0.318 -0.3564,-1.0197 -0.4403,-0.212 -1.5777,-1.5245 -1.6563,-2.63"
         inkscape:connector-curvature="0" />
    </clipPath>
    <clipPath
       id="clipPath5005"
       clipPathUnits="userSpaceOnUse">
      <path
         id="path5007"
         d="m 0,0 1000,0 0,1000 L 0,1000 0,0 z"
         inkscape:connector-curvature="0" />
    </clipPath>
    <clipPath
       id="clipPath4953"
       clipPathUnits="userSpaceOnUse">
      <path
         id="path4955"
         d="m 0,891.015 720,0 0,-891 -720,0 0,891 z"
         inkscape:connector-curvature="0" />
    </clipPath>
    <clipPath
       id="clipPath4945"
       clipPathUnits="userSpaceOnUse">
      <path
         id="path4947"
         d="m 45,846 630,0 0,-801 -630,0 0,801 z"
         inkscape:connector-curvature="0" />
    </clipPath>
    <clipPath
       id="clipPath4933"
       clipPathUnits="userSpaceOnUse">
      <path
         id="path4935"
         d="m 0,891.015 720,0 0,-891 -720,0 0,891 z"
         inkscape:connector-curvature="0" />
    </clipPath>
    <clipPath
       id="clipPath4925"
       clipPathUnits="userSpaceOnUse">
      <path
         id="path4927"
         d="m 45,846 630,0 0,-801 -630,0 0,801 z"
         inkscape:connector-curvature="0" />
    </clipPath>
    <clipPath
       id="clipPath4917"
       clipPathUnits="userSpaceOnUse">
      <path
         id="path4919"
         clip-rule="evenodd"
         d="m 86.5,402.79 105.5,0 0,-64.75 -105.5,0 0,64.75 z"
         inkscape:connector-curvature="0" />
    </clipPath>
    <clipPath
       id="clipPath4905"
       clipPathUnits="userSpaceOnUse">
      <path
         id="path4907"
         d="m 0,891.015 720,0 0,-891 -720,0 0,891 z"
         inkscape:connector-curvature="0" />
    </clipPath>
    <clipPath
       id="clipPath4897"
       clipPathUnits="userSpaceOnUse">
      <path
         id="path4899"
         d="m 45,846 630,0 0,-801 -630,0 0,801 z"
         inkscape:connector-curvature="0" />
    </clipPath>
    <clipPath
       id="clipPath4889"
       clipPathUnits="userSpaceOnUse">
      <path
         id="path4891"
         clip-rule="evenodd"
         d="m 86.5,365.24 105.5,0 0,-88.75 -105.5,0 0,88.75 z"
         inkscape:connector-curvature="0" />
    </clipPath>
    <clipPath
       id="clipPath4861"
       clipPathUnits="userSpaceOnUse">
      <path
         id="path4863"
         d="m 0,891.015 720,0 0,-891 -720,0 0,891 z"
         inkscape:connector-curvature="0" />
    </clipPath>
    <clipPath
       id="clipPath4853"
       clipPathUnits="userSpaceOnUse">
      <path
         id="path4855"
         d="m 45,846 630,0 0,-801 -630,0 0,801 z"
         inkscape:connector-curvature="0" />
    </clipPath>
    <clipPath
       id="clipPath4705"
       clipPathUnits="userSpaceOnUse">
      <path
         id="path4707"
         d="m 0,891.015 720,0 0,-891 -720,0 0,891 z"
         inkscape:connector-curvature="0" />
    </clipPath>
    <clipPath
       id="clipPath4697"
       clipPathUnits="userSpaceOnUse">
      <path
         id="path4699"
         d="m 45,846 630,0 0,-801 -630,0 0,801 z"
         inkscape:connector-curvature="0" />
    </clipPath>
    <clipPath
       id="clipPath4689"
       clipPathUnits="userSpaceOnUse">
      <path
         id="path4691"
         clip-rule="evenodd"
         d="m 229.19,697.89 107,0 0,-108.5 -107,0 0,108.5 z"
         inkscape:connector-curvature="0" />
    </clipPath>
    <clipPath
       id="clipPath4541"
       clipPathUnits="userSpaceOnUse">
      <path
         id="path4543"
         d="m 0,891.015 720,0 0,-891 -720,0 0,891 z"
         inkscape:connector-curvature="0" />
    </clipPath>
    <clipPath
       id="clipPath4533"
       clipPathUnits="userSpaceOnUse">
      <path
         id="path4535"
         d="m 45,846 630,0 0,-801 -630,0 0,801 z"
         inkscape:connector-curvature="0" />
    </clipPath>
    <clipPath
       id="clipPath4525"
       clipPathUnits="userSpaceOnUse">
      <path
         id="path4527"
         clip-rule="evenodd"
         d="m 428.19,697.89 107,0 0,-108.5 -107,0 0,108.5 z"
         inkscape:connector-curvature="0" />
    </clipPath>
    <clipPath
       id="clipPath4377"
       clipPathUnits="userSpaceOnUse">
      <path
         id="path4379"
         d="m 0,891.015 720,0 0,-891 -720,0 0,891 z"
         inkscape:connector-curvature="0" />
    </clipPath>
    <clipPath
       id="clipPath4369"
       clipPathUnits="userSpaceOnUse">
      <path
         id="path4371"
         d="m 45,846 630,0 0,-801 -630,0 0,801 z"
         inkscape:connector-curvature="0" />
    </clipPath>
    <clipPath
       id="clipPath4361"
       clipPathUnits="userSpaceOnUse">
      <path
         id="path4363"
         clip-rule="evenodd"
         d="m 229.19,383.89 107,0 0,-108.5 -107,0 0,108.5 z"
         inkscape:connector-curvature="0" />
    </clipPath>
    <clipPath
       id="clipPath4211"
       clipPathUnits="userSpaceOnUse">
      <path
         id="path4213"
         d="m 0,891.015 720,0 0,-891 -720,0 0,891 z"
         inkscape:connector-curvature="0" />
    </clipPath>
    <clipPath
       id="clipPath4203"
       clipPathUnits="userSpaceOnUse">
      <path
         id="path4205"
         d="m 45,846 630,0 0,-801 -630,0 0,801 z"
         inkscape:connector-curvature="0" />
    </clipPath>
    <clipPath
       id="clipPath4195"
       clipPathUnits="userSpaceOnUse">
      <path
         id="path4197"
         clip-rule="evenodd"
         d="m 428.19,383.89 107,0 0,-108.5 -107,0 0,108.5 z"
         inkscape:connector-curvature="0" />
    </clipPath>
    <clipPath
       id="clipPath4047"
       clipPathUnits="userSpaceOnUse">
      <path
         id="path4049"
         d="m 0,891.015 720,0 0,-891 -720,0 0,891 z"
         inkscape:connector-curvature="0" />
    </clipPath>
    <clipPath
       id="clipPath4039"
       clipPathUnits="userSpaceOnUse">
      <path
         id="path4041"
         d="m 45,846 630,0 0,-801 -630,0 0,801 z"
         inkscape:connector-curvature="0" />
    </clipPath>
    <clipPath
       id="clipPath4031"
       clipPathUnits="userSpaceOnUse">
      <path
         id="path4033"
         clip-rule="evenodd"
         d="m 229.19,268.89 107,0 0,-108.5 -107,0 0,108.5 z"
         inkscape:connector-curvature="0" />
    </clipPath>
    <clipPath
       id="clipPath3883"
       clipPathUnits="userSpaceOnUse">
      <path
         id="path3885"
         d="m 0,891.015 720,0 0,-891 -720,0 0,891 z"
         inkscape:connector-curvature="0" />
    </clipPath>
    <clipPath
       id="clipPath3875"
       clipPathUnits="userSpaceOnUse">
      <path
         id="path3877"
         d="m 45,846 630,0 0,-801 -630,0 0,801 z"
         inkscape:connector-curvature="0" />
    </clipPath>
    <clipPath
       id="clipPath3867"
       clipPathUnits="userSpaceOnUse">
      <path
         id="path3869"
         clip-rule="evenodd"
         d="m 428.19,268.89 107,0 0,-108.5 -107,0 0,108.5 z"
         inkscape:connector-curvature="0" />
    </clipPath>
    <clipPath
       id="clipPath3267"
       clipPathUnits="userSpaceOnUse">
      <path
         id="path3269"
         d="m 0,891.015 720,0 0,-891 -720,0 0,891 z"
         inkscape:connector-curvature="0" />
    </clipPath>
    <clipPath
       id="clipPath3259"
       clipPathUnits="userSpaceOnUse">
      <path
         id="path3261"
         d="m 45,846 630,0 0,-801 -630,0 0,801 z"
         inkscape:connector-curvature="0" />
    </clipPath>
    <clipPath
       id="clipPath3163"
       clipPathUnits="userSpaceOnUse">
      <path
         id="path3165"
         clip-rule="evenodd"
         d="m 582.612,782.41 -495.466,0 0,20.618 495.466,0 c 5.675,0 10.276,-4.615 10.276,-10.309 0,-5.694 -4.601,-10.309 -10.276,-10.309"
         inkscape:connector-curvature="0" />
    </clipPath>
    <clipPath
       id="clipPath3155"
       clipPathUnits="userSpaceOnUse">
      <path
         id="path3157"
         clip-rule="evenodd"
         d="m 582.775,782.41 -495.62,0 0,20.618 495.62,0 c 5.674,0 10.274,-4.615 10.274,-10.309 0,-5.694 -4.6,-10.309 -10.274,-10.309"
         inkscape:connector-curvature="0" />
    </clipPath>
    <clipPath
       id="clipPath3143"
       clipPathUnits="userSpaceOnUse">
      <path
         id="path3145"
         clip-rule="evenodd"
         d="m 582.612,782.41 -495.466,0 0,20.618 495.466,0 c 5.675,0 10.276,-4.615 10.276,-10.309 0,-5.694 -4.601,-10.309 -10.276,-10.309"
         inkscape:connector-curvature="0" />
    </clipPath>
    <clipPath
       id="clipPath3131"
       clipPathUnits="userSpaceOnUse">
      <path
         id="path3133"
         clip-rule="evenodd"
         d="m 58.62,815.78 550,0 0,-51.28 -550,0 0,51.28 z"
         inkscape:connector-curvature="0" />
    </clipPath>
    <clipPath
       id="clipPath3121"
       clipPathUnits="userSpaceOnUse">
      <path
         id="path3123"
         d="m 0,891.015 720,0 0,-891 -720,0 0,891 z"
         inkscape:connector-curvature="0" />
    </clipPath>
    <clipPath
       id="clipPath3113"
       clipPathUnits="userSpaceOnUse">
      <path
         id="path3115"
         d="m 45,846 630,0 0,-801 -630,0 0,801 z"
         inkscape:connector-curvature="0" />
    </clipPath>
    <clipPath
       id="clipPath3093"
       clipPathUnits="userSpaceOnUse">
      <path
         id="path3095"
         clip-rule="evenodd"
         d="m 583.002,411.929 -495.715,0 0,20.783 495.715,0 c 5.547,0 10.045,-4.653 10.045,-10.392 0,-5.739 -4.498,-10.391 -10.045,-10.391"
         inkscape:connector-curvature="0" />
    </clipPath>
    <clipPath
       id="clipPath3085"
       clipPathUnits="userSpaceOnUse">
      <path
         id="path3087"
         clip-rule="evenodd"
         d="m 583,411.929 -495.714,0 0,20.783 495.714,0 c 5.549,0 10.047,-4.653 10.047,-10.392 0,-5.739 -4.498,-10.391 -10.047,-10.391"
         inkscape:connector-curvature="0" />
    </clipPath>
    <clipPath
       id="clipPath3073"
       clipPathUnits="userSpaceOnUse">
      <path
         id="path3075"
         clip-rule="evenodd"
         d="m 583.002,411.929 -495.715,0 0,20.783 495.715,0 c 5.547,0 10.045,-4.653 10.045,-10.392 0,-5.739 -4.498,-10.391 -10.045,-10.391"
         inkscape:connector-curvature="0" />
    </clipPath>
    <clipPath
       id="clipPath3061"
       clipPathUnits="userSpaceOnUse">
      <path
         id="path3063"
         clip-rule="evenodd"
         d="m 60,446 549,0 0,-52 -549,0 0,52 z"
         inkscape:connector-curvature="0" />
    </clipPath>
    <clipPath
       id="clipPath3051"
       clipPathUnits="userSpaceOnUse">
      <path
         id="path3053"
         d="m 0,891.015 720,0 0,-891 -720,0 0,891 z"
         inkscape:connector-curvature="0" />
    </clipPath>
    <clipPath
       id="clipPath3043"
       clipPathUnits="userSpaceOnUse">
      <path
         id="path3045"
         d="m 45,846 630,0 0,-801 -630,0 0,801 z"
         inkscape:connector-curvature="0" />
    </clipPath>
    <clipPath
       id="clipPath3031"
       clipPathUnits="userSpaceOnUse">
      <path
         id="path3033"
         d="M 0,0 720,0 720,891 0,891 0,0 z"
         inkscape:connector-curvature="0" />
    </clipPath>
    <clipPath
       id="clipPath3021"
       clipPathUnits="userSpaceOnUse">
      <path
         id="path3023"
         d="m 27,0 0,783 612,0 L 639,0 27,0 z"
         inkscape:connector-curvature="0" />
    </clipPath>
    <clipPath
       id="clipPath3011"
       clipPathUnits="userSpaceOnUse">
      <path
         id="path3013"
         d="M 0,0 639,0 639,783 0,783 0,0 z"
         inkscape:connector-curvature="0" />
    </clipPath>
    <clipPath
       id="clipPath3001"
       clipPathUnits="userSpaceOnUse">
      <path
         id="path3003"
         d="M 0,0 0,783 585,783 585,0 0,0 z"
         inkscape:connector-curvature="0" />
    </clipPath>
    <marker id="redarrowhead" markerWidth="5" markerHeight="3" 
    refX="0" refY="1.5" orient="auto">
      <polygon points="0 0, 5 1.5, 0 3" fill="red" />
    </marker>
    <marker id="bluearrowhead" markerWidth="5" markerHeight="3" 
    refX="0" refY="1.5" orient="auto">
      <polygon points="0 0, 5 1.5, 0 3" fill="blue" />
    </marker>
  </defs>
  <sodipodi:namedview
     id="base"
     pagecolor="#ffffff"
     bordercolor="#666666"
     borderopacity="1.0"
     inkscape:pageopacity="0.0"
     inkscape:pageshadow="2"
     inkscape:zoom="1"
     inkscape:cx="400.92118"
     inkscape:cy="405.93841"
     inkscape:document-units="px"
     inkscape:current-layer="layer1"
     showgrid="false"
     inkscape:window-width="1858"
     inkscape:window-height="1058"
     inkscape:window-x="-8"
     inkscape:window-y="-8"
     inkscape:window-maximized="1"
     showguides="true"
     inkscape:guide-bbox="true" />
  <metadata
     id="metadata7">
    <rdf:RDF>
      <cc:Work
         rdf:about="">
        <dc:format>image/svg+xml</dc:format>
        <dc:type
           rdf:resource="http://purl.org/dc/dcmitype/StillImage" />
        <dc:title></dc:title>
      </cc:Work>
    </rdf:RDF>
  </metadata>
  <g
     inkscape:label="Layer 1"
     inkscape:groupmode="layer"
     id="layer1"
     transform="translate(0,-252.36189)">
    <g
       id="g16186"
       transform="matrix(0.96730759,0,0,0.95586663,14.032847,36.437895)">
      <rect
         y="298.18915"
         x="155.37411"
         height="692.34546"
         width="1.9906995"
         id="rect5041-3"
         style="opacity:0.67256637;fill:#cccccc;fill-opacity:1;stroke:none" />
      <rect
         y="298.18915"
         x="57.921909"
         height="692.34546"
         width="1.9906995"
         id="rect5041-00"
         style="opacity:0.67256637;fill:#cccccc;fill-opacity:1;stroke:none" />
      <rect
         y="298.18915"
         x="106.64801"
         height="692.34546"
         width="1.9906995"
         id="rect5041-61"
         style="opacity:0.67256637;fill:#cccccc;fill-opacity:1;stroke:none" />
      <rect
         y="298.18915"
         x="204.10022"
         height="692.34546"
         width="1.9906995"
         id="rect5041-89"
         style="opacity:0.67256637;fill:#cccccc;fill-opacity:1;stroke:none" />
      <rect
         y="298.18915"
         x="252.82632"
         height="692.34546"
         width="1.9906995"
         id="rect5041-42"
         style="opacity:0.67256637;fill:#cccccc;fill-opacity:1;stroke:none" />
      <rect
         y="298.18915"
         x="301.55243"
         height="692.34546"
         width="1.9906995"
         id="rect5041-097"
         style="opacity:0.67256637;fill:#cccccc;fill-opacity:1;stroke:none" />
      <rect
         y="298.18915"
         x="350.27856"
         height="692.34546"
         width="1.9906995"
         id="rect5041-37"
         style="opacity:0.67256637;fill:#cccccc;fill-opacity:1;stroke:none" />
      <rect
         y="298.18915"
         x="399.00467"
         height="692.34546"
         width="1.9906995"
         id="rect5041-26"
         style="opacity:0.67256637;fill:#cccccc;fill-opacity:1;stroke:none" />
      <rect
         y="298.18915"
         x="447.73077"
         height="692.34546"
         width="1.9906995"
         id="rect5041-8-0"
         style="opacity:0.67256637;fill:#cccccc;fill-opacity:1;stroke:none" />
      <rect
         y="298.18915"
         x="496.45688"
         height="692.34546"
         width="1.9906995"
         id="rect5041-6-1"
         style="opacity:0.67256637;fill:#cccccc;fill-opacity:1;stroke:none" />
      <rect
         y="298.18915"
         x="545.18298"
         height="692.34546"
         width="1.9906995"
         id="rect5041-0-6"
         style="opacity:0.67256637;fill:#cccccc;fill-opacity:1;stroke:none" />
      <rect
         y="298.18915"
         x="593.90912"
         height="692.34546"
         width="1.9906995"
         id="rect5041-2-5"
         style="opacity:0.67256637;fill:#cccccc;fill-opacity:1;stroke:none" />
      <rect
         y="298.18915"
         x="642.63519"
         height="692.34546"
         width="1.9906995"
         id="rect5041-4-7"
         style="opacity:0.67256637;fill:#cccccc;fill-opacity:1;stroke:none" />
      <rect
         y="298.18915"
         x="691.36133"
         height="692.34546"
         width="1.9906995"
         id="rect5041-86-5"
         style="opacity:0.67256637;fill:#cccccc;fill-opacity:1;stroke:none" />
      <rect
         y="298.18915"
         x="740.0874"
         height="692.34546"
         width="1.9906995"
         id="rect5041-5-4"
         style="opacity:0.67256637;fill:#cccccc;fill-opacity:1;stroke:none" />
    </g>
    <g
       id="g16045"
       transform="matrix(0.95586663,0,0,0.95586663,18.609236,28.790976)">
      <rect
         transform="matrix(0,1,-1,0,0,0)"
         y="-746.17273"
         x="306.18936"
         height="692.34546"
         width="2.0145268"
         id="rect5041-00-9"
         style="opacity:0.67256637;fill:#cccccc;fill-opacity:1;stroke:none" />
      <rect
         transform="matrix(0,1,-1,0,0,0)"
         y="-746.17273"
         x="355.49869"
         height="692.34546"
         width="2.0145268"
         id="rect5041-61-7"
         style="opacity:0.67256637;fill:#cccccc;fill-opacity:1;stroke:none" />
      <rect
         transform="matrix(0,1,-1,0,0,0)"
         y="-746.17273"
         x="404.80804"
         height="692.34546"
         width="2.0145268"
         id="rect5041-3-6"
         style="opacity:0.67256637;fill:#cccccc;fill-opacity:1;stroke:none" />
      <rect
         transform="matrix(0,1,-1,0,0,0)"
         y="-746.17273"
         x="454.11731"
         height="692.34546"
         width="2.0145268"
         id="rect5041-89-2"
         style="opacity:0.67256637;fill:#cccccc;fill-opacity:1;stroke:none" />
      <rect
         transform="matrix(0,1,-1,0,0,0)"
         y="-746.17273"
         x="503.42664"
         height="692.34546"
         width="2.0145268"
         id="rect5041-42-9"
         style="opacity:0.67256637;fill:#cccccc;fill-opacity:1;stroke:none" />
      <rect
         transform="matrix(0,1,-1,0,0,0)"
         y="-746.17273"
         x="552.73596"
         height="692.34546"
         width="2.0145268"
         id="rect5041-097-5"
         style="opacity:0.67256637;fill:#cccccc;fill-opacity:1;stroke:none" />
      <rect
         transform="matrix(0,1,-1,0,0,0)"
         y="-746.17273"
         x="602.04529"
         height="692.34546"
         width="2.0145268"
         id="rect5041-37-2"
         style="opacity:0.67256637;fill:#cccccc;fill-opacity:1;stroke:none" />
      <rect
         transform="matrix(0,1,-1,0,0,0)"
         y="-746.17273"
         x="651.35461"
         height="692.34546"
         width="2.0145268"
         id="rect5041-26-0"
         style="opacity:0.67256637;fill:#cccccc;fill-opacity:1;stroke:none" />
      <rect
         transform="matrix(0,1,-1,0,0,0)"
         y="-746.17273"
         x="700.66394"
         height="692.34546"
         width="2.0145268"
         id="rect5041-8-0-0"
         style="opacity:0.67256637;fill:#cccccc;fill-opacity:1;stroke:none" />
      <rect
         transform="matrix(0,1,-1,0,0,0)"
         y="-746.17273"
         x="749.97321"
         height="692.34546"
         width="2.0145268"
         id="rect5041-6-1-3"
         style="opacity:0.67256637;fill:#cccccc;fill-opacity:1;stroke:none" />
      <rect
         transform="matrix(0,1,-1,0,0,0)"
         y="-746.17273"
         x="799.28259"
         height="692.34546"
         width="2.0145268"
         id="rect5041-0-6-9"
         style="opacity:0.67256637;fill:#cccccc;fill-opacity:1;stroke:none" />
      <rect
         transform="matrix(0,1,-1,0,0,0)"
         y="-746.17273"
         x="848.59186"
         height="692.34546"
         width="2.0145268"
         id="rect5041-2-5-1"
         style="opacity:0.67256637;fill:#cccccc;fill-opacity:1;stroke:none" />
      <rect
         transform="matrix(0,1,-1,0,0,0)"
         y="-746.17273"
         x="897.90118"
         height="692.34546"
         width="2.0145268"
         id="rect5041-4-7-8"
         style="opacity:0.67256637;fill:#cccccc;fill-opacity:1;stroke:none" />
      <rect
         transform="matrix(0,1,-1,0,0,0)"
         y="-746.17273"
         x="947.21051"
         height="692.34546"
         width="2.0145268"
         id="rect5041-86-5-1"
         style="opacity:0.67256637;fill:#cccccc;fill-opacity:1;stroke:none" />
      <rect
         transform="matrix(0,1,-1,0,0,0)"
         y="-746.17273"
         x="996.51984"
         height="692.34546"
         width="2.0145268"
         id="rect5041-5-4-9"
         style="opacity:0.67256637;fill:#cccccc;fill-opacity:1;stroke:none" />
    </g>
    <text
       xml:space="preserve"
       style="font-size:34.35338974px;font-style:normal;font-weight:normal;line-height:125%;letter-spacing:0px;word-spacing:0px;fill:#000000;fill-opacity:1;stroke:none;font-family:Sans"
       x="385.84802"
       y="330.46396"
       id="text3867-9"
       sodipodi:linespacing="125%"
       transform="scale(1.0859552,0.92084831)"><tspan
         sodipodi:role="line"
         id="tspan3869-5"
         x="385.84802"
         y="330.46396">y</tspan></text>
    <text
       xml:space="preserve"
       style="font-size:39.63562012px;font-style:normal;font-variant:normal;font-weight:normal;font-stretch:normal;line-height:125%;letter-spacing:0px;word-spacing:0px;fill:#cccccc;fill-opacity:1;stroke:none;font-family:Andalus;-inkscape-font-specification:Andalus"
       x="220.94608"
       y="314.44348"
       id="text3892"
       sodipodi:linespacing="125%"><tspan
         sodipodi:role="line"
         id="tspan3894"
         x="220.94608"
         y="314.44348">II</tspan></text>
    <text
       xml:space="preserve"
       style="font-size:39.63562012px;font-style:normal;font-weight:normal;line-height:125%;letter-spacing:0px;word-spacing:0px;fill:#cccccc;fill-opacity:1;stroke:none;font-family:Sans"
       x="555.98907"
       y="1017.5952"
       id="text3896"
       sodipodi:linespacing="125%"><tspan
         sodipodi:role="line"
         id="tspan3898"
         x="555.98907"
         y="1017.5952"
         style="font-style:normal;font-variant:normal;font-weight:normal;font-stretch:normal;fill:#cccccc;font-family:Andalus;-inkscape-font-specification:Andalus">IV</tspan></text>
    <text
       xml:space="preserve"
       style="font-size:39.63562012px;font-style:normal;font-variant:normal;font-weight:normal;font-stretch:normal;line-height:125%;letter-spacing:0px;word-spacing:0px;fill:#cccccc;fill-opacity:1;stroke:none;font-family:Andalus;-inkscape-font-specification:Andalus"
       x="215.0374"
       y="1017.5952"
       id="text3892-1"
       sodipodi:linespacing="125%"><tspan
         sodipodi:role="line"
         id="tspan3894-2"
         x="215.0374"
         y="1017.5952">III</tspan></text>
    <text
       xml:space="preserve"
       style="font-size:39.63562012px;font-style:normal;font-variant:normal;font-weight:normal;font-stretch:normal;line-height:125%;letter-spacing:0px;word-spacing:0px;fill:#cccccc;fill-opacity:1;stroke:none;font-family:Andalus;-inkscape-font-specification:Andalus"
       x="569.61597"
       y="314.44348"
       id="text3892-3"
       sodipodi:linespacing="125%"><tspan
         sodipodi:role="line"
         id="tspan3894-34"
         x="569.61597"
         y="314.44348">I</tspan></text>
    <g
       id="g6708"
       style="fill:#666666;fill-opacity:1;stroke:none"
       transform="matrix(1.6544747,0,0,1.6544747,-379.54663,-138.43203)">
      <path
         sodipodi:nodetypes="ccccccccccc"
         id="path4331-4"
         d="m 471.77807,236.17188 -2.97438,12.87436 1.89747,0 0,457.75408 -1.94872,0 2.97438,12.97342 2.97432,-12.97342 -1.9487,0 0,-457.75408 2,0 z"
         style="font-size:medium;font-style:normal;font-variant:normal;font-weight:normal;font-stretch:normal;text-indent:0;text-align:start;text-decoration:none;line-height:normal;letter-spacing:normal;word-spacing:normal;text-transform:none;direction:ltr;block-progression:tb;writing-mode:lr-tb;text-anchor:start;baseline-shift:baseline;color:#000000;fill:#666666;fill-opacity:1;stroke:none;stroke-width:1.25;marker:none;visibility:visible;display:inline;overflow:visible;enable-background:accumulate;font-family:Sans;-inkscape-font-specification:Sans"
         inkscape:connector-curvature="0" />
      <path
         sodipodi:nodetypes="ccccccccccc"
         id="path4331-4-2"
         d="m 712.34453,477.99843 -12.87436,-2.97438 0,1.89747 -456.49187,0 0,-1.94872 -12.97342,2.97438 12.97342,2.97432 0,-1.9487 456.49187,0 0,2 z"
         style="font-size:medium;font-style:normal;font-variant:normal;font-weight:normal;font-stretch:normal;text-indent:0;text-align:start;text-decoration:none;line-height:normal;letter-spacing:normal;word-spacing:normal;text-transform:none;direction:ltr;block-progression:tb;writing-mode:lr-tb;text-anchor:start;baseline-shift:baseline;color:#000000;fill:#666666;fill-opacity:1;stroke:none;stroke-width:1.25;marker:none;visibility:visible;display:inline;overflow:visible;enable-background:accumulate;font-family:Sans;-inkscape-font-specification:Sans"
         inkscape:connector-curvature="0" />
    </g>
    <text
       xml:space="preserve"
       style="font-size:9.6812582px;font-style:normal;font-weight:normal;line-height:125%;letter-spacing:0px;word-spacing:0px;fill:#000000;fill-opacity:1;stroke:none;font-family:Sans"
       x="346.67825"
       y="663.34076"
       id="text3939-1"
       sodipodi:linespacing="125%"><tspan
         sodipodi:role="line"
         id="tspan3941-1"
         x="346.67825"
         y="663.34076">-1</tspan></text>
    <text
       xml:space="preserve"
       style="font-size:9.6812582px;font-style:normal;font-weight:normal;line-height:125%;letter-spacing:0px;word-spacing:0px;fill:#000000;fill-opacity:1;stroke:none;font-family:Sans"
       x="301.99408"
       y="663.34076"
       id="text3939-1-3"
       sodipodi:linespacing="125%"><tspan
         sodipodi:role="line"
         id="tspan3941-1-8"
         x="301.99408"
         y="663.34076">-2</tspan></text>
    <text
       xml:space="preserve"
       style="font-size:9.6812582px;font-style:normal;font-weight:normal;line-height:125%;letter-spacing:0px;word-spacing:0px;fill:#000000;fill-opacity:1;stroke:none;font-family:Sans"
       x="259.81961"
       y="663.21765"
       id="text3939-1-3-7"
       sodipodi:linespacing="125%"><tspan
         sodipodi:role="line"
         id="tspan3941-1-8-4"
         x="259.81961"
         y="663.21765">-3</tspan></text>
    <text
       xml:space="preserve"
       style="font-size:9.6812582px;font-style:normal;font-weight:normal;line-height:125%;letter-spacing:0px;word-spacing:0px;fill:#000000;fill-opacity:1;stroke:none;font-family:Sans"
       x="208.13617"
       y="663.34076"
       id="text3939-1-3-2"
       sodipodi:linespacing="125%"><tspan
         sodipodi:role="line"
         id="tspan3941-1-8-7"
         x="208.13617"
         y="663.34076">-4</tspan></text>
    <text
       xml:space="preserve"
       style="font-size:9.6812582px;font-style:normal;font-weight:normal;line-height:125%;letter-spacing:0px;word-spacing:0px;fill:#000000;fill-opacity:1;stroke:none;font-family:Sans"
       x="160.22179"
       y="663.22247"
       id="text3939-1-3-2-7"
       sodipodi:linespacing="125%"><tspan
         sodipodi:role="line"
         id="tspan3941-1-8-7-9"
         x="160.22179"
         y="663.22247">-5</tspan></text>
    <text
       xml:space="preserve"
       style="font-size:9.6812582px;font-style:normal;font-weight:normal;line-height:125%;letter-spacing:0px;word-spacing:0px;fill:#000000;fill-opacity:1;stroke:none;font-family:Sans"
       x="112.37598"
       y="663.22247"
       id="text3939-1-3-2-3"
       sodipodi:linespacing="125%"><tspan
         sodipodi:role="line"
         id="tspan3941-1-8-7-1"
         x="112.37598"
         y="663.22247">-6</tspan></text>
    <text
       xml:space="preserve"
       style="font-size:9.6812582px;font-style:normal;font-weight:normal;line-height:125%;letter-spacing:0px;word-spacing:0px;fill:#000000;fill-opacity:1;stroke:none;font-family:Sans"
       x="66.411148"
       y="663.34076"
       id="text3939-1-3-2-9"
       sodipodi:linespacing="125%"><tspan
         sodipodi:role="line"
         id="tspan3941-1-8-7-8"
         x="66.411148"
         y="663.34076">-7</tspan></text>
    <text
       xml:space="preserve"
       style="font-size:9.6812582px;font-style:normal;font-weight:normal;line-height:125%;letter-spacing:0px;word-spacing:0px;fill:#000000;fill-opacity:1;stroke:none;font-family:Sans"
       x="23.332592"
       y="663.22247"
       id="text3939-1-3-2-6"
       sodipodi:linespacing="125%"><tspan
         sodipodi:role="line"
         id="tspan3941-1-8-7-5"
         x="23.332592"
         y="663.22247">-8</tspan></text>
    <text
       xml:space="preserve"
       style="font-size:9.6812582px;font-style:normal;font-weight:normal;line-height:125%;letter-spacing:0px;word-spacing:0px;fill:#000000;fill-opacity:1;stroke:none;font-family:Sans"
       x="445.67102"
       y="663.5885"
       id="text3939-1-36"
       sodipodi:linespacing="125%"><tspan
         sodipodi:role="line"
         id="tspan3941-1-1"
         x="445.67102"
         y="663.5885">1</tspan></text>
    <text
       xml:space="preserve"
       style="font-size:9.6812582px;font-style:normal;font-weight:normal;line-height:125%;letter-spacing:0px;word-spacing:0px;fill:#000000;fill-opacity:1;stroke:none;font-family:Sans"
       x="492.94119"
       y="663.5885"
       id="text3939-1-3-8"
       sodipodi:linespacing="125%"><tspan
         sodipodi:role="line"
         id="tspan3941-1-8-6"
         x="492.94119"
         y="663.5885">2</tspan></text>
    <text
       xml:space="preserve"
       style="font-size:9.6812582px;font-style:normal;font-weight:normal;line-height:125%;letter-spacing:0px;word-spacing:0px;fill:#000000;fill-opacity:1;stroke:none;font-family:Sans"
       x="539.36261"
       y="663.46558"
       id="text3939-1-3-7-2"
       sodipodi:linespacing="125%"><tspan
         sodipodi:role="line"
         id="tspan3941-1-8-4-1"
         x="539.36261"
         y="663.46558">3</tspan></text>
    <text
       xml:space="preserve"
       style="font-size:9.6812582px;font-style:normal;font-weight:normal;line-height:125%;letter-spacing:0px;word-spacing:0px;fill:#000000;fill-opacity:1;stroke:none;font-family:Sans"
       x="587.03693"
       y="663.5885"
       id="text3939-1-3-2-4"
       sodipodi:linespacing="125%"><tspan
         sodipodi:role="line"
         id="tspan3941-1-8-7-6"
         x="587.03693"
         y="663.5885">4</tspan></text>
    <text
       xml:space="preserve"
       style="font-size:9.6812582px;font-style:normal;font-weight:normal;line-height:125%;letter-spacing:0px;word-spacing:0px;fill:#000000;fill-opacity:1;stroke:none;font-family:Sans"
       x="633.37567"
       y="663.47028"
       id="text3939-1-3-2-7-2"
       sodipodi:linespacing="125%"><tspan
         sodipodi:role="line"
         id="tspan3941-1-8-7-9-91"
         x="633.37567"
         y="663.47028">5</tspan></text>
    <text
       xml:space="preserve"
       style="font-size:9.6812582px;font-style:normal;font-weight:normal;line-height:125%;letter-spacing:0px;word-spacing:0px;fill:#000000;fill-opacity:1;stroke:none;font-family:Sans"
       x="680.94128"
       y="663.47028"
       id="text3939-1-3-2-3-5"
       sodipodi:linespacing="125%"><tspan
         sodipodi:role="line"
         id="tspan3941-1-8-7-1-0"
         x="680.94128"
         y="663.47028">6</tspan></text>
    <text
       xml:space="preserve"
       style="font-size:9.6812582px;font-style:normal;font-weight:normal;line-height:125%;letter-spacing:0px;word-spacing:0px;fill:#000000;fill-opacity:1;stroke:none;font-family:Sans"
       x="728.41003"
       y="663.5885"
       id="text3939-1-3-2-9-3"
       sodipodi:linespacing="125%"><tspan
         sodipodi:role="line"
         id="tspan3941-1-8-7-8-64"
         x="728.41003"
         y="663.5885">7</tspan></text>
    <text
       xml:space="preserve"
       style="font-size:9.6812582px;font-style:normal;font-weight:normal;line-height:125%;letter-spacing:0px;word-spacing:0px;fill:#000000;fill-opacity:1;stroke:none;font-family:Sans"
       x="770.95435"
       y="663.47028"
       id="text3939-1-3-2-6-9"
       sodipodi:linespacing="125%"><tspan
         sodipodi:role="line"
         id="tspan3941-1-8-7-5-2"
         x="770.95435"
         y="663.47028">8</tspan></text>
    <text
       xml:space="preserve"
       style="font-size:9.6812582px;font-style:normal;font-weight:normal;line-height:125%;letter-spacing:0px;word-spacing:0px;fill:#000000;fill-opacity:1;stroke:none;font-family:Sans"
       x="405.62039"
       y="609.24188"
       id="text3939-1-36-3"
       sodipodi:linespacing="125%"><tspan
         sodipodi:role="line"
         id="tspan3941-1-1-0"
         x="405.62039"
         y="609.24188">1</tspan></text>
    <text
       xml:space="preserve"
       style="font-size:9.6812582px;font-style:normal;font-weight:normal;line-height:125%;letter-spacing:0px;word-spacing:0px;fill:#000000;fill-opacity:1;stroke:none;font-family:Sans"
       x="406.39084"
       y="561.38855"
       id="text3939-1-36-3-3"
       sodipodi:linespacing="125%"><tspan
         sodipodi:role="line"
         id="tspan3941-1-1-0-8"
         x="406.39084"
         y="561.38855">2</tspan></text>
    <text
       xml:space="preserve"
       style="font-size:9.6812582px;font-style:normal;font-weight:normal;line-height:125%;letter-spacing:0px;word-spacing:0px;fill:#000000;fill-opacity:1;stroke:none;font-family:Sans"
       x="406.26801"
       y="514.47369"
       id="text3939-1-36-3-2"
       sodipodi:linespacing="125%"><tspan
         sodipodi:role="line"
         id="tspan3941-1-1-0-5"
         x="406.26801"
         y="514.47369">3</tspan></text>
    <text
       xml:space="preserve"
       style="font-size:9.6812582px;font-style:normal;font-weight:normal;line-height:125%;letter-spacing:0px;word-spacing:0px;fill:#000000;fill-opacity:1;stroke:none;font-family:Sans"
       x="406.55157"
       y="467.66766"
       id="text3939-1-36-3-20"
       sodipodi:linespacing="125%"><tspan
         sodipodi:role="line"
         id="tspan3941-1-1-0-3"
         x="406.55157"
         y="467.66766">4</tspan></text>
    <text
       xml:space="preserve"
       style="font-size:9.6812582px;font-style:normal;font-weight:normal;line-height:125%;letter-spacing:0px;word-spacing:0px;fill:#000000;fill-opacity:1;stroke:none;font-family:Sans"
       x="406.27274"
       y="419.70792"
       id="text3939-1-36-3-7"
       sodipodi:linespacing="125%"><tspan
         sodipodi:role="line"
         id="tspan3941-1-1-0-2"
         x="406.27274"
         y="419.70792">5</tspan></text>
    <text
       xml:space="preserve"
       style="font-size:9.6812582px;font-style:normal;font-weight:normal;line-height:125%;letter-spacing:0px;word-spacing:0px;fill:#000000;fill-opacity:1;stroke:none;font-family:Sans"
       x="406.31049"
       y="372.91602"
       id="text3939-1-36-3-9"
       sodipodi:linespacing="125%"><tspan
         sodipodi:role="line"
         id="tspan3941-1-1-0-7"
         x="406.31049"
         y="372.91602">6</tspan></text>
    <text
       xml:space="preserve"
       style="font-size:9.6812582px;font-style:normal;font-weight:normal;line-height:125%;letter-spacing:0px;word-spacing:0px;fill:#000000;fill-opacity:1;stroke:none;font-family:Sans"
       x="406.21594"
       y="326.06262"
       id="text3939-1-36-3-5"
       sodipodi:linespacing="125%"><tspan
         sodipodi:role="line"
         id="tspan3941-1-1-0-34"
         x="406.21594"
         y="326.06262">7</tspan></text>
    <text
       xml:space="preserve"
       style="font-size:9.6812582px;font-style:normal;font-weight:normal;line-height:125%;letter-spacing:0px;word-spacing:0px;fill:#000000;fill-opacity:1;stroke:none;font-family:Sans"
       x="406.28214"
       y="283.20926"
       id="text3939-1-36-3-32"
       sodipodi:linespacing="125%"><tspan
         sodipodi:role="line"
         id="tspan3941-1-1-0-1"
         x="406.28214"
         y="283.20926">8</tspan></text>
    <text
       xml:space="preserve"
       style="font-size:9.6812582px;font-style:normal;font-weight:normal;line-height:125%;letter-spacing:0px;word-spacing:0px;fill:#000000;fill-opacity:1;stroke:none;font-family:Sans"
       x="388.46841"
       y="702.6073"
       id="text3939-1-36-3-84"
       sodipodi:linespacing="125%"><tspan
         sodipodi:role="line"
         id="tspan3941-1-1-0-9"
         x="388.46841"
         y="702.6073">-1</tspan></text>
    <text
       xml:space="preserve"
       style="font-size:9.6812582px;font-style:normal;font-weight:normal;line-height:125%;letter-spacing:0px;word-spacing:0px;fill:#000000;fill-opacity:1;stroke:none;font-family:Sans"
       x="387.20154"
       y="748.05695"
       id="text3939-1-36-3-84-2"
       sodipodi:linespacing="125%"><tspan
         sodipodi:role="line"
         id="tspan3941-1-1-0-9-6"
         x="387.20154"
         y="748.05695">-2</tspan></text>
    <text
       xml:space="preserve"
       style="font-size:9.6812582px;font-style:normal;font-weight:normal;line-height:125%;letter-spacing:0px;word-spacing:0px;fill:#000000;fill-opacity:1;stroke:none;font-family:Sans"
       x="387.13065"
       y="795.44519"
       id="text3939-1-36-3-84-5"
       sodipodi:linespacing="125%"><tspan
         sodipodi:role="line"
         id="tspan3941-1-1-0-9-7"
         x="387.13065"
         y="795.44519">-3</tspan></text>
    <text
       xml:space="preserve"
       style="font-size:9.6812582px;font-style:normal;font-weight:normal;line-height:125%;letter-spacing:0px;word-spacing:0px;fill:#000000;fill-opacity:1;stroke:none;font-family:Sans"
       x="387.159"
       y="842.94214"
       id="text3939-1-36-3-84-7"
       sodipodi:linespacing="125%"><tspan
         sodipodi:role="line"
         id="tspan3941-1-1-0-9-4"
         x="387.159"
         y="842.94214">-4</tspan></text>
    <text
       xml:space="preserve"
       style="font-size:9.6812582px;font-style:normal;font-weight:normal;line-height:125%;letter-spacing:0px;word-spacing:0px;fill:#000000;fill-opacity:1;stroke:none;font-family:Sans"
       x="387.07864"
       y="890.2854"
       id="text3939-1-36-3-84-57"
       sodipodi:linespacing="125%"><tspan
         sodipodi:role="line"
         id="tspan3941-1-1-0-9-9"
         x="387.07864"
         y="890.2854">-5</tspan></text>
    <text
       xml:space="preserve"
       style="font-size:9.6812582px;font-style:normal;font-weight:normal;line-height:125%;letter-spacing:0px;word-spacing:0px;fill:#000000;fill-opacity:1;stroke:none;font-family:Sans"
       x="387.13538"
       y="937.79657"
       id="text3939-1-36-3-84-8"
       sodipodi:linespacing="125%"><tspan
         sodipodi:role="line"
         id="tspan3941-1-1-0-9-3"
         x="387.13538"
         y="937.79657">-6</tspan></text>
    <text
       xml:space="preserve"
       style="font-size:9.6812582px;font-style:normal;font-weight:normal;line-height:125%;letter-spacing:0px;word-spacing:0px;fill:#000000;fill-opacity:1;stroke:none;font-family:Sans"
       x="387.13065"
       y="985.24622"
       id="text3939-1-36-3-84-0"
       sodipodi:linespacing="125%"><tspan
         sodipodi:role="line"
         id="tspan3941-1-1-0-9-2"
         x="387.13065"
         y="985.24622">-7</tspan></text>
    <text
       xml:space="preserve"
       style="font-size:9.6812582px;font-style:normal;font-weight:normal;line-height:125%;letter-spacing:0px;word-spacing:0px;fill:#000000;fill-opacity:1;stroke:none;font-family:Sans"
       x="387.11646"
       y="1026.6959"
       id="text3939-1-36-3-84-23"
       sodipodi:linespacing="125%"><tspan
         sodipodi:role="line"
         id="tspan3941-1-1-0-9-67"
         x="387.11646"
         y="1026.6959">-8</tspan></text>
    <text
       xml:space="preserve"
       style="font-size:41.94251251px;font-style:normal;font-weight:normal;line-height:125%;letter-spacing:0px;word-spacing:0px;fill:#000000;fill-opacity:1;stroke:none;font-family:Sans"
       x="690.15411"
       y="754.58588"
       id="text3867-9-3"
       sodipodi:linespacing="125%"
       transform="scale(1.0859552,0.92084831)"><tspan
         sodipodi:role="line"
         id="tspan3869-5-3"
         x="690.15411"
         y="754.58588">x</tspan></text>
  </g>
  <line 
      id="current-arrow"
      x1="400" y1="400" x2="600" y2="400" stroke="red"
      stroke-width="8" marker-end="url(#redarrowhead)" 
   />
   <line 
      id="voltage-arrow"
      x1="400" y1="400" x2="600" y2="200" stroke="blue"
      stroke-width="8" marker-end="url(#bluearrowhead)" 
   />
</svg>
